/* XPM */
static char * pylogo_xpm[] = {
"32 32 316 2",
"  	c None",
". 	c #8DB0CE",
"+ 	c #6396BF",
"@ 	c #4985B7",
"# 	c #4181B5",
"$ 	c #417EB2",
"% 	c #417EB1",
"& 	c #4D83B0",
"* 	c #6290B6",
"= 	c #94B2CA",
"- 	c #70A1C8",
"; 	c #3D83BC",
"> 	c #3881BD",
", 	c #387DB6",
"' 	c #387CB5",
") 	c #387BB3",
"! 	c #3779B0",
"~ 	c #3778AE",
"{ 	c #3776AB",
"] 	c #3776AA",
"^ 	c #3775A9",
"/ 	c #4A7FAC",
"( 	c #709FC5",
"_ 	c #3A83BE",
": 	c #5795C7",
"< 	c #94B9DB",
"[ 	c #73A4CE",
"} 	c #3D80B7",
"| 	c #387CB4",
"1 	c #377AB2",
"2 	c #377AB0",
"3 	c #3777AC",
"4 	c #3774A7",
"5 	c #3773A5",
"6 	c #3C73A5",
"7 	c #4586BB",
"8 	c #4489C1",
"9 	c #A7C7E1",
"0 	c #F7F9FD",
"a 	c #E1E9F1",
"b 	c #4C89BC",
"c 	c #3779AF",
"d 	c #3778AD",
"e 	c #3873A5",
"f 	c #4B7CA4",
"g 	c #3982BE",
"h 	c #4389C1",
"i 	c #A6C6E1",
"j 	c #F6F9FC",
"k 	c #D6E4F0",
"l 	c #4A88BB",
"m 	c #3773A6",
"n 	c #366F9F",
"o 	c #366E9D",
"p 	c #376E9C",
"q 	c #4A8BC0",
"r 	c #79A7CD",
"s 	c #548EBD",
"t 	c #387AB0",
"u 	c #3773A4",
"v 	c #366D9C",
"w 	c #387FBA",
"x 	c #387DB7",
"y 	c #387BB4",
"z 	c #3775A8",
"A 	c #366FA0",
"B 	c #4981AF",
"C 	c #427BAA",
"D 	c #3772A4",
"E 	c #376B97",
"F 	c #77A3C8",
"G 	c #4586BC",
"H 	c #3882BE",
"I 	c #3B76A7",
"J 	c #3B76A6",
"K 	c #366E9E",
"L 	c #376B98",
"M 	c #376B96",
"N 	c #5681A3",
"O 	c #F5EEB8",
"P 	c #FFED60",
"Q 	c #FFE85B",
"R 	c #FFE659",
"S 	c #FDE55F",
"T 	c #5592C4",
"U 	c #3A83BF",
"V 	c #3882BD",
"W 	c #387FB9",
"X 	c #3779AE",
"Y 	c #366F9E",
"Z 	c #366C98",
"` 	c #376A94",
" .	c #5D85A7",
"..	c #F5EDB7",
"+.	c #FFEA5D",
"@.	c #FFE75A",
"#.	c #FFE354",
"$.	c #FDDD56",
"%.	c #669DC8",
"&.	c #3885C3",
"*.	c #3884C2",
"=.	c #387EB8",
"-.	c #387CB6",
";.	c #377AB1",
">.	c #3772A3",
",.	c #366D9B",
"'.	c #F5EBB5",
").	c #FFE557",
"!.	c #FFE455",
"~.	c #FFDF50",
"{.	c #FFDB4C",
"].	c #FAD862",
"^.	c #8EB4D2",
"/.	c #3C86C1",
"(.	c #3883C0",
"_.	c #3882BF",
":.	c #3881BC",
"<.	c #3880BB",
"[.	c #3775AA",
"}.	c #F5EAB3",
"|.	c #FFE051",
"1.	c #FFDE4F",
"2.	c #FFDA4A",
"3.	c #FED446",
"4.	c #F5DF9D",
"5.	c #77A5CA",
"6.	c #3885C2",
"7.	c #387BB2",
"8.	c #6B8EA8",
"9.	c #F8E7A1",
"0.	c #FFE153",
"a.	c #FFDD4E",
"b.	c #FFDB4B",
"c.	c #FFD746",
"d.	c #FFD645",
"e.	c #FFD342",
"f.	c #F6DB8D",
"g.	c #508DBE",
"h.	c #3771A3",
"i.	c #376A95",
"j.	c #3D6F97",
"k.	c #C3CBC2",
"l.	c #FBD964",
"m.	c #FFDC4D",
"n.	c #FFD544",
"o.	c #FFD040",
"p.	c #F9CF58",
"q.	c #3F83BB",
"r.	c #376B95",
"s.	c #3A6C95",
"t.	c #4E7BA0",
"u.	c #91AABC",
"v.	c #F6E4A3",
"w.	c #FFDA4B",
"x.	c #FFD646",
"y.	c #FFD443",
"z.	c #FFD241",
"A.	c #FFCE3D",
"B.	c #FFCC3B",
"C.	c #FCC83E",
"D.	c #3880BC",
"E.	c #3C79AC",
"F.	c #5F8DB4",
"G.	c #7AA0C0",
"H.	c #82A6C3",
"I.	c #82A3BF",
"J.	c #82A2BE",
"K.	c #82A1BB",
"L.	c #82A1B9",
"M.	c #8BA4B5",
"N.	c #C1C5AE",
"O.	c #F2E19F",
"P.	c #FDD74C",
"Q.	c #FFD94A",
"R.	c #FFD343",
"S.	c #FFCE3E",
"T.	c #FFCB39",
"U.	c #FFC937",
"V.	c #FEC636",
"W.	c #3D79AB",
"X.	c #9DB6C6",
"Y.	c #D0CFA2",
"Z.	c #EFE598",
"`.	c #F8EE9B",
" +	c #F8EB97",
".+	c #F8E996",
"++	c #F8E894",
"@+	c #FAE489",
"#+	c #FCDB64",
"$+	c #FFDA4D",
"%+	c #FFCF3E",
"&+	c #FFCB3A",
"*+	c #FFC734",
"=+	c #FFC532",
"-+	c #3F82B7",
";+	c #387EB9",
">+	c #9EB9D0",
",+	c #F2E287",
"'+	c #FDEB69",
")+	c #FEEC60",
"!+	c #FFEB5E",
"~+	c #FFE254",
"{+	c #FFE152",
"]+	c #FFD747",
"^+	c #FFC633",
"/+	c #FCC235",
"(+	c #578FBE",
"_+	c #6996BC",
":+	c #DED9A8",
"<+	c #FEEC62",
"[+	c #FFE658",
"}+	c #FFDF51",
"|+	c #FFDE50",
"1+	c #FFD03F",
"2+	c #FFCD3C",
"3+	c #FFC431",
"4+	c #FFBF2C",
"5+	c #FAC244",
"6+	c #85AACA",
"7+	c #A1BBD2",
"8+	c #F7E47C",
"9+	c #FFE456",
"0+	c #FFC735",
"a+	c #FFBC29",
"b+	c #F7D280",
"c+	c #9DBAD2",
"d+	c #3B7CB2",
"e+	c #ABC2D6",
"f+	c #FDEB7B",
"g+	c #FFC12E",
"h+	c #FDBD30",
"i+	c #F4DEA8",
"j+	c #5F91BA",
"k+	c #ABC1D4",
"l+	c #FDEE7E",
"m+	c #FFE253",
"n+	c #FFCC3C",
"o+	c #FFBA27",
"p+	c #FAC75B",
"q+	c #4A82B0",
"r+	c #3877AB",
"s+	c #3774A6",
"t+	c #AAC0D4",
"u+	c #FDEE7D",
"v+	c #FFEC5F",
"w+	c #FFE255",
"x+	c #FFD848",
"y+	c #FFD444",
"z+	c #FFCF3F",
"A+	c #FFBC2A",
"B+	c #FFBB28",
"C+	c #FDBA32",
"D+	c #447AA8",
"E+	c #4379A7",
"F+	c #FFE95C",
"G+	c #FFE558",
"H+	c #FFE355",
"I+	c #FED84B",
"J+	c #FCD149",
"K+	c #FBCE47",
"L+	c #FBCD46",
"M+	c #FBC840",
"N+	c #FBC63E",
"O+	c #FBC037",
"P+	c #FAC448",
"Q+	c #FDD44C",
"R+	c #FCD14E",
"S+	c #FFC836",
"T+	c #FFC22F",
"U+	c #FFC02D",
"V+	c #FFE052",
"W+	c #FFC636",
"X+	c #FFCF5C",
"Y+	c #FFD573",
"Z+	c #FFC33E",
"`+	c #FEBD2D",
" @	c #FFDB4D",
".@	c #FFD949",
"+@	c #FFD545",
"@@	c #FFD140",
"#@	c #FFCB48",
"$@	c #FFF7E4",
"%@	c #FFFCF6",
"&@	c #FFE09D",
"*@	c #FFBA2E",
"=@	c #FDBE2F",
"-@	c #FFD748",
";@	c #FFCA38",
">@	c #FFC844",
",@	c #FFF2D7",
"'@	c #FFF9EC",
")@	c #FFDB94",
"!@	c #FFB92D",
"~@	c #FAC54D",
"{@	c #FDD54E",
"]@	c #FFBD2D",
"^@	c #FFC858",
"/@	c #FFD174",
"(@	c #FFBF3E",
"_@	c #FCBD3C",
":@	c #FAD66A",
"<@	c #FECD3F",
"[@	c #FFC330",
"}@	c #FFBD2A",
"|@	c #FFB724",
"1@	c #FFB521",
"2@	c #FFB526",
"3@	c #FBC457",
"4@	c #F7E09E",
"5@	c #F8D781",
"6@	c #FAC349",
"7@	c #FCC134",
"8@	c #FEBE2C",
"9@	c #FBBE3F",
"0@	c #F7CF79",
"a@	c #F5D795",
"                      . + @ # $ % % & * =                       ",
"                  - ; > > , ' ) ! ~ { ] ^ /                     ",
"                ( _ : < [ } | 1 2 ~ 3 4 5 5 6                   ",
"                7 8 9 0 a b 2 c d 3 { 5 5 5 e f                 ",
"                g h i j k l c ~ { { m 5 5 n o p                 ",
"                > > q r s t c c d 4 5 u n v v v                 ",
"                w x ' y 2 c d d z 5 u A v v v v                 ",
"                              B C 5 D v v v v E                 ",
"      F G H H H x ' ) c c c d I J 5 K v v L M N O P Q R S       ",
"    T U H V V W ' ) c c X ~ 5 5 5 Y v v Z ` `  ...+.@.#.#.$.    ",
"  %.&.*.> w W =.-.;.c 3 { ^ 5 5 >.o v ,.E ` `  .'.).!.#.~.{.].  ",
"^./.(._.:.<., ' ) ;.X d [.5 5 >.K v ,.E ` ` `  .}.#.|.1.{.2.3.4.",
"5.6.(.H H x ' 7.c c 3 3 4 5 D K v v ,.` ` ` ` 8.9.0.a.b.c.d.e.f.",
"g._.> <.w ' ' | 2 3 { z 5 5 h.v v v i.` ` ` j.k.l.m.{.d.n.e.o.p.",
"q.> > :.-.' 1 c c c ] 5 5 >.v v ,.r.` ` s.t.u.v.{.w.x.y.z.A.B.C.",
"D.D.w -.' 1 c c c E.F.G.H.I.J.J.K.L.L.L.M.N.O.P.Q.c.R.S.B.T.U.V.",
"D.D.=.' ' 1 c c W.X.Y.Z.`.`.`.`.`. +.+++@+#+$+Q.d.R.%+B.&+*+=+=+",
"-+;+-.' ;.2 c c >+,+'+)+P P P !+Q R ~+{+1.{.]+d.y.%+B.&+^+=+=+/+",
"(+' ' ;.c X X _+:+<+P P P P !+R [+~+}+|+{.]+n.R.1+2+&+^+=+3+4+5+",
"6+' ) ! ~ { { 7+8+P P P P !+R 9+#.{+{.w.]+y.z.S.&+0+=+=+3+4+a+b+",
"c+d+7.! d 3 z e+f+P P P !+R 9+#.{+m.{.]+y.1+B.&+0+=+=+g+4+a+h+i+",
"  j+c d 3 { 4 k+l+P P !+@.9+m+1.m.{.]+y.1+n+B.*+=+=+g+a+a+o+p+  ",
"    q+r+{ s+m t+u+v+@.R w+{+}+{.x+d.y+z+n+B.0+=+=+g+A+a+B+C+    ",
"      * D+E+E+  +.F+G+H+}+}+{.I+J+K+L+M+M+M+M+N+O+O+O+O+P+      ",
"                ).).#.{+a.{.x+Q+R+                              ",
"                #.m+1.a.{.x+y.o.2+B.S+=+=+T+U+O+                ",
"                0.V+{.{.x+n.o.2+B.B.W+X+Y+Z+a+`+                ",
"                 @{..@+@n.@@B.B.S+^+#@$@%@&@*@=@                ",
"                ].-@x.y.o.%+;@S+=+=+>@,@'@)@!@~@                ",
"                  {@z.z+2+U.=+=+=+T+]@^@/@(@_@                  ",
"                    :@<@U.=+=+[@4+}@|@1@2@3@                    ",
"                      4@5@6@7@8@a+a+9@0@a@                      "};
